<svg id="Layer_1" data-name="Layer 1" xmlns="http://www.w3.org/2000/svg" viewBox="0 0 198.05 157.21"><defs><style>.cls-1{fill:none;stroke:#fff;stroke-miterlimit:10;stroke-width:2px;}.cls-2{opacity:0.43;}.cls-3{fill:#2a2874;}</style></defs><polygon class="cls-1" points="104.71 18.52 56.99 101.17 152.43 101.17 104.71 18.52"/><polygon class="cls-1" points="35.06 26.33 19.4 53.45 50.72 53.45 35.06 26.33"/><polygon class="cls-1" points="174.36 34.47 169.67 42.6 179.05 42.6 174.36 34.47"/><polygon class="cls-1" points="179.05 83.43 161.79 113.33 196.32 113.33 179.05 83.43"/><polygon class="cls-1" points="56.99 110.38 30.53 156.21 83.45 156.21 56.99 110.38"/><polygon class="cls-1" points="6.36 107.99 1.73 116.01 10.99 116.01 6.36 107.99"/><polygon class="cls-1" points="63.75 2 57.3 13.18 70.2 13.18 63.75 2"/><polygon class="cls-1" points="145.66 4.86 135.81 21.92 155.52 21.92 145.66 4.86"/><g class="cls-2"><polygon class="cls-3" points="104.71 18.52 56.99 101.17 152.43 101.17 104.71 18.52"/><polygon class="cls-3" points="35.06 26.33 19.4 53.45 50.72 53.45 35.06 26.33"/><polygon class="cls-3" points="174.36 34.47 169.67 42.6 179.05 42.6 174.36 34.47"/><polygon class="cls-3" points="179.05 83.43 161.79 113.33 196.32 113.33 179.05 83.43"/><polygon class="cls-3" points="56.99 110.38 30.53 156.21 83.45 156.21 56.99 110.38"/><polygon class="cls-3" points="6.36 107.99 1.73 116.01 10.99 116.01 6.36 107.99"/><polygon class="cls-3" points="63.75 2 57.3 13.18 70.2 13.18 63.75 2"/><polygon class="cls-3" points="145.66 4.86 135.81 21.92 155.52 21.92 145.66 4.86"/></g></svg>