<svg id="Layer_1" data-name="Layer 1" xmlns="http://www.w3.org/2000/svg" viewBox="0 0 163.12 102.18"><defs><style>.cls-1{fill:none;stroke:#fff;stroke-miterlimit:10;stroke-width:2px;}.cls-2{opacity:0.43;}.cls-3{fill:#2a2874;}</style></defs><polygon class="cls-1" points="76.08 83.65 123.8 1 28.36 1 76.08 83.65"/><polygon class="cls-1" points="145.73 75.85 161.39 48.73 130.07 48.73 145.73 75.85"/><polygon class="cls-1" points="6.42 67.71 11.12 59.58 1.73 59.58 6.42 67.71"/><polygon class="cls-1" points="117.03 100.17 123.49 89 110.58 89 117.03 100.17"/><polygon class="cls-1" points="35.12 97.32 44.97 80.25 25.27 80.25 35.12 97.32"/><g class="cls-2"><polygon class="cls-3" points="76.08 83.65 123.8 1 28.36 1 76.08 83.65"/><polygon class="cls-3" points="145.73 75.85 161.39 48.73 130.07 48.73 145.73 75.85"/><polygon class="cls-3" points="6.42 67.71 11.12 59.58 1.73 59.58 6.42 67.71"/><polygon class="cls-3" points="117.03 100.17 123.49 89 110.58 89 117.03 100.17"/><polygon class="cls-3" points="35.12 97.32 44.97 80.25 25.27 80.25 35.12 97.32"/></g></svg>